<svg xmlns="http://www.w3.org/2000/svg" width="364.197" height="149.941" viewBox="0 0 364.197 149.941">
  <g id="Group_1717" data-name="Group 1717" transform="translate(-132 -75.104)">
    <g id="Group_1" data-name="Group 1" transform="translate(-222.468 -13.104)">
      <path id="Path_1" data-name="Path 1" d="M721.367,193.184c-38.429-7.841-77.22-12.172-116.466-14.365.848.767,1.671,1.566,2.552,2.294.976.807,1.975,1.592,3.017,2.311,4.147,2.861,6.216,2.7,9.909-.7.38-.349.778-.678,1.279-1.115.063.373.17.581.107.7-2.091,3.988-4.872,7.368-9.038,9.266a4.323,4.323,0,0,1-3.41-.183,28.7,28.7,0,0,1-5.687-4.105c-2.8-2.652-5.33-5.587-8.046-8.33a3.453,3.453,0,0,0-2.1-1.052c-16.179-.283-32.361-.746-48.54-.637a165.5,165.5,0,0,0-33.278,3.212c-1.253.265-2.467.71-3.7,1.073l-.021.717a28.778,28.778,0,0,0,4.321,1.3c7.282,1.033,14.568,2.067,21.878,2.879,10.672,1.186,21.372,2.12,32.048,3.279,8.034.872,16.052,1.892,24.067,2.932a38.421,38.421,0,0,1,5.621,1.306,6.467,6.467,0,0,1,1.691,1.168c-.533.412-1.011,1.063-1.607,1.2-6.043,1.374-12.049,3.123-18.175,3.882-13.286,1.647-26.619,2.971-39.963,4.066-15.94,1.309-31.914,2.195-47.866,3.348-14.266,1.031-28.539,2.005-42.779,3.322-12.182,1.125-24.391,2.262-36.3,5.292a36.748,36.748,0,0,0-7.108,2.574c-3.631,1.782-3.8,4.4-.224,6.383a57.622,57.622,0,0,0,11.363,5.021c9.864,2.939,19.853,5.458,29.79,8.149a2.315,2.315,0,0,1,1.285.742c-3.5-.7-7.042-1.257-10.5-2.121-9.466-2.359-18.944-4.692-28.322-7.368a38.814,38.814,0,0,1-9.287-4.355c-3.572-2.173-3.546-5.245.24-7a74.092,74.092,0,0,1,13.749-4.834c13.329-3.2,26.924-4.907,40.547-6.284q21.341-2.159,42.713-3.989c14.553-1.223,29.131-2.155,43.689-3.32,10.586-.847,21.158-1.856,31.734-2.826a27.192,27.192,0,0,0,3.119-.647l.106-.605a16.137,16.137,0,0,0-2.836-1.14c-5.788-1.156-11.568-2.406-17.4-3.289-8.166-1.235-16.367-2.245-24.569-3.218-7.189-.852-14.416-1.406-21.6-2.309-5.255-.661-10.473-1.637-15.691-2.565a13.458,13.458,0,0,1-2.876-1.317c1.982-2.023,4.273-2.334,6.389-2.656,8.7-1.324,17.392-2.9,26.149-3.553,13.656-1.012,27.357-1.548,41.05-1.89,9.047-.226,18.111.242,27.168.4.584.009,1.167,0,2.109,0-6.991-9.231-13.753-18.225-18.6-28.666-4.175,6.255-8.445,12.253-11.157,19.155a27.826,27.826,0,0,0-.883,4.016c-.484-.171-1.475-.216-1.9-.728a20.981,20.981,0,0,1-3.3-4.887,5.1,5.1,0,0,1,.2-3.782c1.791-3.68,3.867-7.222,5.838-10.816.3-.554.626-1.1.895-1.567-4.772,3.8-9.477,7.753-14.392,11.421-5.127,3.826-10.483,7.32-16.588,9.493a8.2,8.2,0,0,1-8.487-1.346c-.468-.381-.959-.736-1.408-1.137-4.9-4.377-5.607-7.852-2.83-13.823.267-.575.512-1.161.952-2.164-3.222,2.582-5.926,5.08-8.95,7.1a182.147,182.147,0,0,1-16.571,10.281c-6.181,3.229-9.534,2.128-14.174-3.15-2.748-3.125-3.436-6.44-1.841-10.347a37.436,37.436,0,0,1,6.985-10.917c6.776-7.522,14.415-13.922,24.024-17.551,5.986-2.26,10.586-.689,13.545,4.377,1.775,3.038,1.669,4.851-.833,7.293a54.632,54.632,0,0,1-20.685,12.279c-3.61,1.25-7.492,1.708-11.233,2.6a2.946,2.946,0,0,0-1.836,1.091,72.272,72.272,0,0,0-3.45,7.722c-.716,1.972.142,3.133,2.161,2.7a42.717,42.717,0,0,0,9.423-2.934,141.362,141.362,0,0,0,29.046-18.267c3.3-2.714,6.208-5.918,9.538-8.594,5-4.021,10.378-7.49,16.749-9.03a10.137,10.137,0,0,1,11.877,7.28,4.364,4.364,0,0,1-1.5,4.875,119.843,119.843,0,0,1-11.408,8.226,49.019,49.019,0,0,1-20.951,6.941,2.187,2.187,0,0,0-1.564.914,77.569,77.569,0,0,0-3.549,7.879c-.728,2.012.118,3.142,2.158,2.707a42.7,42.7,0,0,0,9.424-2.932,138.982,138.982,0,0,0,29.592-18.736c2.072-1.73,3.95-3.856,3.7-7.035-.155-1.936,1.4-2.721,2.837-3.591a9.672,9.672,0,0,0,2.957-2.442q8.21-11.7,16.22-23.541a25.845,25.845,0,0,0,2.7-5.3,18.8,18.8,0,0,0,.579-4.1,4,4,0,0,1,1.126.426,10.145,10.145,0,0,1,1.776,1.524c4.7,5.178,4.752,5.8.855,11.409q-7.381,10.633-14.794,21.243a3.442,3.442,0,0,0-.678,1.523c1.579-1.219,3.113-2.5,4.748-3.641,1.778-1.237,3.633-2.368,5.485-3.495a5.645,5.645,0,0,1,6.637.233,19.448,19.448,0,0,1,4.464,4.6,5.537,5.537,0,0,1,.038,6.5c-4.748,6.814-11.068,11.069-19.6,11.14-2.2.018-4.412-.852-6.8-1.353.938,1.722,1.814,3.483,2.826,5.161a128.3,128.3,0,0,0,18.561,23.326,4.31,4.31,0,0,0,2.539,1.069c12.145,1.037,24.349,1.585,36.435,3.09q23.679,2.947,47.2,7.163c11.379,2.026,22.594,4.974,33.88,7.522C720.25,192.766,720.8,193,721.367,193.184ZM531.08,148.425l.375.4c.626-.187,1.265-.339,1.876-.566a65.862,65.862,0,0,0,22.859-14.5,21.919,21.919,0,0,0,2.753-3.557,1.592,1.592,0,0,0,.161-1.431,1.682,1.682,0,0,0-1.446-.368,22.283,22.283,0,0,0-4.271,1.383,55.074,55.074,0,0,0-13.527,9.86C536.849,142.48,534,145.49,531.08,148.425Zm-39.495.41c.625-.189,1.26-.35,1.874-.57a65.855,65.855,0,0,0,21.306-12.992,36.61,36.61,0,0,0,4.243-4.893,1.758,1.758,0,0,0,.264-1.589,1.85,1.85,0,0,0-1.589-.37,16.456,16.456,0,0,0-3.763,1.193C504.908,134.126,498.04,141.191,491.586,148.835Zm85.784-9.212a4.75,4.75,0,0,0,4.859,2.1c7.987-1.246,13.134-6.313,17.059-12.938a7.4,7.4,0,0,0,.343-1.886C590.374,128.45,583.6,133.4,577.37,139.623Z" transform="translate(-5.667 -0.972)" fill="#2f4931"/>
      <path id="Path_2" data-name="Path 2" d="M456.911,122.934c3.285,1.461,5.094,4.352,6.473,7.515.251.576-.417,1.686-.876,2.414-1.14,1.81-2.4,3.541-3.449,5.443,3.069-2.745,6.041-5.609,9.232-8.2,3.223-2.62,6.582-5.093,10.037-7.4,2.352-1.571,3.732-1.063,5.14,1.435,1.777,3.152,1.552,6.3-.052,9.6-2.153-3.785-4.284-4.53-8.46-3.112a34.362,34.362,0,0,0-10.754,6.562c-8.232,6.833-15.592,14.438-20.642,24a51.544,51.544,0,0,0-2.155,5.559,3.043,3.043,0,0,1-1.231-.276,7.4,7.4,0,0,1-2.69-10.144c1.217-2.142,2.572-4.205,3.633-6.561-.737.684-1.486,1.354-2.209,2.053-9.867,9.538-20.1,18.63-31.848,25.846-5.73,3.52-11.7,6.5-18.4,7.725-9.809,1.8-24.983-2.865-30.947-11.91a20.445,20.445,0,0,1-3.1-13.818c1.042-10.225,5.565-19.054,11.365-27.235A115.533,115.533,0,0,1,416,92.289a47.763,47.763,0,0,1,17.346-4.07c7.953-.226,14.093,3.09,18.282,9.919a8.1,8.1,0,0,1,.114,8.729c-2.55,4.646-6.254,8.25-10.317,11.517a62.07,62.07,0,0,1-14.255,8.5,11.83,11.83,0,0,1-1.813.474l-.363-.454a19.9,19.9,0,0,1,1.475-1.758c6.031-5.757,12.039-11.548,16.59-18.6a29.79,29.79,0,0,0,3.151-6.663c1.26-3.777-.7-6.446-4.659-6.719-7.44-.513-14.321,1.657-21.008,4.553-17.45,7.554-31.259,19.623-42.66,34.63-5.5,7.241-10.26,14.9-13.075,23.631-1.556,4.823-2.427,9.76-1.315,14.77,1.137,5.121,5.087,8.217,10.754,8.993,6.179.846,12-.692,17.7-2.732,12.329-4.407,23.447-11.092,33.869-18.875,7.292-5.445,14.617-10.984,21.091-17.333,4.023-3.946,6.546-9.445,9.591-14.342C457.017,125.623,456.773,124.31,456.911,122.934Z" fill="#2f4931"/>
      <path id="Path_3" data-name="Path 3" d="M665.51,112.229a8.539,8.539,0,0,1,3.886,4.94,3.356,3.356,0,0,1-.587,2.33c-1.295,2.083-2.733,4.078-4.31,6.393,2.5.236,4.75.47,7,.655,21.851,1.8,42.84-1.344,62.652-11.042A40.2,40.2,0,0,0,747.6,105.57c1.854-2.2,3.295-4.62,3.392-7.617.088-2.711-1.5-4.694-4.21-4.481a36.533,36.533,0,0,0-8.8,1.718,105.2,105.2,0,0,0-24.513,12.273,2.957,2.957,0,0,1-1.894.567,6.245,6.245,0,0,1,.74-1.083c6.888-6.579,14.2-12.553,23.24-16a16.442,16.442,0,0,1,19.7,6.065,9.3,9.3,0,0,1,.895,9.584c-2.268,5.451-6.587,8.986-11.41,11.992-8.253,5.144-17.392,7.978-26.823,9.945a134.144,134.144,0,0,1-34.569,2.546c-6.675-.352-13.319-1.295-19.982-1.911a2.372,2.372,0,0,0-1.833.548c-7.114,9.442-14.44,18.742-20.11,29.176-1.658,3.053-1.885,4.079-1.483,6.235a17.508,17.508,0,0,0,2.292-1.333c2.255-1.817,4.467-3.688,6.665-5.572a4.239,4.239,0,0,0,.964-1.269A29.239,29.239,0,0,1,664.466,143c1.146-.5,2.119-1.382,3.241-1.95,4.423-2.239,7.551-1.056,9.177,3.641.526,1.52,1.183,2.171,2.77,1.954,1.681-.231,3.707.7,4.727-1.57.691-1.54,1.459-3.046,2.245-4.676.971.22,3.862,3.24,3.852,4.667a3.878,3.878,0,0,1-.92,1.855c-3.2,4.594-6.446,9.155-9.616,13.768a12.891,12.891,0,0,0-1.052,2.548l.424.39a12.254,12.254,0,0,0,2.239-1.512c4.733-4.983,9.47-9.964,14.061-15.076.946-1.054,1.284-2.654,2.008-4.234,1.9.613,3.087,2.454,3.907,4.531.165.42-.393,1.176-.7,1.727-2.459,4.345-4.969,8.662-7.381,13.031a9.461,9.461,0,0,0-.591,2.5l.483.4a13,13,0,0,0,2.348-1.292,50.459,50.459,0,0,0,12.439-16.722c1.145-2.357,1.573-5.062,2.314-7.56,3.04,1.308,4.192,3.868,2.536,7.094a53.206,53.206,0,0,1-16.581,19.3c-2.219,1.583-3.415,1.545-5.264.185a4.784,4.784,0,0,1-1.844-5.57c.515-1.643,1.174-3.24,1.951-5.355-2.234,2.661-4.113,4.921-6.019,7.157-.783.918-1.6,1.806-2.445,2.671-2.782,2.857-4.147,2.719-6.537-.593-1.583-2.193-2.113-4.374-.414-6.819,2.159-3.109,4.183-6.313,6.345-9.6-1.364,0-2.655-.077-3.926.05-.354.035-.776.626-.946,1.05a33.35,33.35,0,0,1-14.633,16.454c-3.211,1.891-6.752,2.675-10.068.3a26.142,26.142,0,0,1-3.809-4.049c-1.029.908-2.48,2.172-3.909,3.459-2.384,2.145-3.919,2.406-6.119,1.007-2.809-1.786-4.056-4.346-2.806-7.039a73.982,73.982,0,0,1,5.54-9.911c4.49-6.721,9.21-13.288,13.834-19.919.274-.392.531-.795.923-1.383-8.81-1.995-17.447-4.107-25.523-7.908l.156-.552c1.31.315,2.613.666,3.932.94,7.2,1.493,14.4,2.961,21.6,4.455a2.536,2.536,0,0,0,3.05-1.212c1.395-2.255,3.051-4.353,4.358-6.654A29.094,29.094,0,0,0,665.51,112.229Zm7.811,35.693a21.333,21.333,0,0,1-3.9-.552c-2.6-.928-4.56.288-6.47,1.7a29.554,29.554,0,0,0-9.325,11.319c-.585,1.247-1.7,2.821-.43,4.015,1.365,1.282,3.117.339,4.291-.594a134.542,134.542,0,0,0,10.25-8.777C669.806,153.023,671.353,150.474,673.321,147.923Zm.409-1.861c.883-2.778.555-4.369-.921-4.74A3.5,3.5,0,0,0,669.1,143.8C668.938,144.988,670.467,145.751,673.73,146.062Z" transform="translate(-38.401 -0.219)" fill="#2f4931"/>
      <path id="Path_4" data-name="Path 4" d="M746.1,151.207c-7.266,3.034-23.625,19.048-24.361,23.564-2.115-.591-3.769-3.617-2.775-5.523a73.55,73.55,0,0,1,4.146-6.779c2.21-3.312,4.59-6.512,6.754-9.852a24.354,24.354,0,0,0,1.707-4.069,4.375,4.375,0,0,1,2.418,6.717,65.871,65.871,0,0,0-4.574,7.045,17.476,17.476,0,0,1,1.418-1.58c4.249-3.744,8.461-7.536,12.829-11.139.949-.783,3.038-1.58,3.632-1.12a16.278,16.278,0,0,1,3.514,4.653c.187.311-.5,1.241-.9,1.8-3.308,4.525-6.663,9.015-9.953,13.553a8.2,8.2,0,0,0-1.2,2.859c6.035-3.651,10.936-8.646,16.383-13.151a3,3,0,0,1-.4.937c-4.8,4.995-9.558,10.041-14.481,14.917-1.787,1.77-2.867,1.64-4.432.331-2.033-1.7-2.9-3.969-1.794-5.666,3.264-4.994,6.679-9.889,10.049-14.814C744.613,153.095,745.226,152.358,746.1,151.207Z" transform="translate(-50.627 -8.358)" fill="#2f4931"/>
      <path id="Path_5" data-name="Path 5" d="M529.146,239.706c-.772,3.506-1.417,6.567-2.146,9.609-.117.492-.605.895-.922,1.338-.393-.437-1.024-.821-1.138-1.322-.888-3.863-1.675-7.749-2.5-11.66,1.316-.755,1.567.022,1.748,1.033.52,2.9,1.074,5.792,1.857,8.742.654-2.839,1.3-5.679,1.966-8.514.164-.7.03-1.849,1.219-1.5a2.4,2.4,0,0,1,1.242,1.55c.71,2.735,1.282,5.5,2.016,8.756.575-2.928,1.069-5.439,1.561-7.95a4.557,4.557,0,0,1,.3-1.4,6.723,6.723,0,0,1,1.156-1.2l.53.371c-.892,4.088-1.767,8.18-2.709,12.258-.077.335-.607.567-.926.846-.315-.368-.815-.693-.916-1.112-.687-2.866-1.289-5.753-1.926-8.631C529.5,240.639,529.376,240.375,529.146,239.706Z" transform="translate(-23.349 -20.709)" fill="#2f4931"/>
      <path id="Path_6" data-name="Path 6" d="M481.009,241.321c0,2.773.025,5.547-.033,8.319-.007.331-.467.654-.716.98-.239-.278-.684-.554-.687-.836-.045-4.085-.03-8.171-.03-12.256l.523-.386c.548.431,1.288.753,1.608,1.313,1.57,2.747,3.029,5.559,4.879,8.26,0-2.63-.04-5.262.035-7.891.014-.5.487-.979.748-1.468.231.464.653.926.661,1.394.063,3.5.064,7,.026,10.493a4.2,4.2,0,0,1-.536,1.355c-.511-.307-1.236-.49-1.5-.942-1.384-2.4-2.648-4.865-3.963-7.3-.216-.4-.474-.779-.714-1.167Z" transform="translate(-17.386 -20.703)" fill="#2f4931"/>
      <path id="Path_7" data-name="Path 7" d="M623,237.415c2.09,0,3.948-.065,5.8.022a2.707,2.707,0,0,1,2.548,2.2,3.963,3.963,0,0,1-.891,4.178,7.624,7.624,0,0,1-1.225.828l3.14,5.7c-1.091.611-1.763.469-2.262-.589-.486-1.032-1.042-2.034-1.6-3.03-1.053-1.885-1.527-2.1-4.008-1.737,0,1.514.04,3.066-.03,4.613-.016.362-.412.705-.634,1.057-.279-.357-.8-.71-.8-1.071C622.977,245.621,623,241.653,623,237.415Zm1.651,1.53v4.27c1.163,0,2.183.039,3.2-.009a1.966,1.966,0,0,0,2.085-2.195,1.9,1.9,0,0,0-2.017-2.055C626.849,238.9,625.779,238.945,624.65,238.945Z" transform="translate(-37.327 -20.738)" fill="#2f4931"/>
      <path id="Path_8" data-name="Path 8" d="M655.44,244.051a23.774,23.774,0,0,1-1.432,4.356,4.417,4.417,0,0,1-7.907.146,8.858,8.858,0,0,1-.048-9.116,4.414,4.414,0,0,1,4.9-2.242c2.084.424,3.682,2.342,4.086,4.958.091.591.076,1.2.11,1.8Zm-1.693.025c-.248-1.072-.408-2.08-.721-3.038a3.057,3.057,0,0,0-2.916-2.312,3.131,3.131,0,0,0-3.1,2.324,7.094,7.094,0,0,0,.175,6.116,4.146,4.146,0,0,0,2.868,1.98c.975,0,2.168-1.1,2.848-2.017C653.486,246.332,653.489,245.1,653.748,244.076Z" transform="translate(-40.36 -20.696)" fill="#2f4931"/>
      <path id="Path_9" data-name="Path 9" d="M509.223,242.871c.421,1.361.133,1.9-1.081,1.845-1.429-.059-2.864-.014-4.39-.014V249c1.7,0,3.314-.066,4.918.04.49.033.948.537,1.421.826-.44.276-.87.775-1.319.793-2.151.084-4.307.037-6.539.037V237.381c2.269,0,4.531-.025,6.79.034.264.007.517.474.775.728-.292.284-.573.8-.879.814-1.672.081-3.35.039-5.147.039v3.875Z" transform="translate(-20.54 -20.735)" fill="#2f4931"/>
      <path id="Path_10" data-name="Path 10" d="M585.534,250.422c1.244-4.047,2.461-8.074,3.75-12.077a1.089,1.089,0,0,1,2.135-.016c1.36,3.981,2.648,7.987,4,12.107-.987.418-1.667.45-1.947-.715a4.975,4.975,0,0,0-.294-.854c-.3-.68-.509-1.82-.964-1.935a6.277,6.277,0,0,0-3.546.008c-.623.235-.931,1.533-1.2,2.407C587.158,250.347,586.833,251.049,585.534,250.422Zm4.823-10.954c-.624,2.135-1.1,3.772-1.623,5.547h3.186a4.635,4.635,0,0,0-.088-.577C591.4,242.955,590.954,241.474,590.357,239.468Z" transform="translate(-32.12 -20.748)" fill="#2f4931"/>
      <path id="Path_11" data-name="Path 11" d="M573.072,240.832c-.709.691-1.263.763-1.707-.313-.477-1.152-1.385-2.1-2.623-1.7-1.025.331-2.493,1.209-2.621,2.024a19.592,19.592,0,0,0,.127,6.5,3.167,3.167,0,0,0,2.522,1.8c.944-.058,1.826-1.229,2.722-1.932.428-.336.825-.711,1.236-1.069.074.581.363,1.24.184,1.727a4.315,4.315,0,0,1-8.065.4,10.1,10.1,0,0,1-.158-8.243,4.512,4.512,0,0,1,4.545-2.941C571.212,237.236,572.422,238.408,573.072,240.832Z" transform="translate(-29.11 -20.694)" fill="#2f4931"/>
      <path id="Path_12" data-name="Path 12" d="M609.194,237.191c.309.384.878.762.886,1.151q.1,5.613.009,11.228c-.006.358-.535.708-.82,1.062-.22-.357-.628-.711-.631-1.07-.046-3.976-.029-7.954-.029-11.931Z" transform="translate(-35.327 -20.71)" fill="#2f4931"/>
      <path id="Path_13" data-name="Path 13" d="M679.925,154.374c-3.263-.311-4.792-1.074-4.63-2.263A3.5,3.5,0,0,1,679,149.634C680.48,150.005,680.808,151.6,679.925,154.374Z" transform="translate(-44.596 -8.531)" fill="#2f4931"/>
    </g>
  </g>
</svg>
