<svg xmlns="http://www.w3.org/2000/svg" width="259.644" height="106.896" viewBox="0 0 259.644 106.896">
  <g id="Group_1718" data-name="Group 1718" transform="translate(-248 -6552)">
    <g id="Group_1714" data-name="Group 1714" transform="translate(-106.468 6463.792)">
      <path id="Path_1" data-name="Path 1" d="M627.743,165.055a574.309,574.309,0,0,0-83.031-10.241c.6.547,1.191,1.117,1.819,1.635.7.575,1.408,1.135,2.151,1.648,2.956,2.04,4.432,1.927,7.064-.5.271-.249.554-.484.912-.795.045.266.121.414.076.5a13.915,13.915,0,0,1-6.443,6.606,3.082,3.082,0,0,1-2.431-.131,20.458,20.458,0,0,1-4.054-2.927c-2-1.891-3.8-3.983-5.736-5.939a2.462,2.462,0,0,0-1.5-.75c-11.534-.2-23.071-.532-34.605-.454A117.986,117.986,0,0,0,478.243,156c-.893.189-1.759.506-2.636.765l-.015.511a20.517,20.517,0,0,0,3.081.93c5.192.737,10.386,1.474,15.6,2.053,7.608.845,15.237,1.511,22.848,2.337,5.727.622,11.444,1.349,17.158,2.09a27.39,27.39,0,0,1,4.007.931,4.611,4.611,0,0,1,1.206.833c-.38.293-.721.758-1.145.854-4.308.98-8.59,2.226-12.957,2.768-9.472,1.174-18.978,2.118-28.49,2.9-11.364.933-22.752,1.565-34.125,2.387-10.17.735-20.346,1.43-30.5,2.368-8.685.8-17.389,1.613-25.879,3.773a26.2,26.2,0,0,0-5.068,1.835c-2.588,1.271-2.706,3.136-.16,4.551a41.08,41.08,0,0,0,8.1,3.58c7.032,2.095,14.154,3.891,21.238,5.81a1.65,1.65,0,0,1,.916.529c-2.5-.5-5.02-.9-7.489-1.512-6.748-1.682-13.506-3.345-20.192-5.252a27.672,27.672,0,0,1-6.621-3.1c-2.547-1.549-2.528-3.739.171-4.99a52.821,52.821,0,0,1,9.8-3.446A216.95,216.95,0,0,1,436,175.018q15.214-1.539,30.451-2.844c10.375-.872,20.768-1.536,31.147-2.367,7.547-.6,15.084-1.323,22.624-2.015a19.39,19.39,0,0,0,2.224-.461l.076-.432a11.506,11.506,0,0,0-2.022-.813c-4.127-.824-8.247-1.716-12.4-2.345-5.821-.88-11.669-1.6-17.516-2.294-5.125-.608-10.277-1-15.4-1.646-3.747-.471-7.466-1.167-11.186-1.829a9.6,9.6,0,0,1-2.05-.939,7.208,7.208,0,0,1,4.555-1.894c6.2-.944,12.4-2.071,18.642-2.533,9.736-.721,19.5-1.1,29.265-1.347,6.45-.161,12.912.172,19.369.284.416.007.832,0,1.5,0-4.984-6.581-9.8-12.993-13.261-20.437-2.976,4.459-6.02,8.735-7.954,13.656a19.832,19.832,0,0,0-.63,2.863c-.345-.122-1.051-.154-1.353-.519a14.957,14.957,0,0,1-2.353-3.484,3.638,3.638,0,0,1,.146-2.7c1.277-2.623,2.757-5.149,4.162-7.711.217-.395.446-.783.638-1.117-3.4,2.712-6.756,5.527-10.26,8.142a45.464,45.464,0,0,1-11.826,6.768,5.843,5.843,0,0,1-6.05-.959c-.334-.271-.684-.525-1-.811-3.493-3.121-4-5.6-2.018-9.855.19-.41.365-.828.679-1.543-2.3,1.841-4.225,3.622-6.381,5.062A129.852,129.852,0,0,1,466,146.233c-4.407,2.3-6.8,1.517-10.1-2.245a6.538,6.538,0,0,1-1.312-7.377,26.688,26.688,0,0,1,4.98-7.783c4.831-5.363,10.277-9.925,17.127-12.513,4.267-1.611,7.547-.491,9.657,3.121,1.265,2.166,1.19,3.458-.594,5.2a38.949,38.949,0,0,1-14.747,8.754c-2.574.891-5.341,1.218-8.008,1.856a2.1,2.1,0,0,0-1.309.778,51.52,51.52,0,0,0-2.46,5.505c-.511,1.406.1,2.234,1.541,1.926a30.454,30.454,0,0,0,6.718-2.092,100.78,100.78,0,0,0,20.707-13.023c2.355-1.935,4.426-4.219,6.8-6.127,3.567-2.867,7.4-5.34,11.941-6.438a7.227,7.227,0,0,1,8.467,5.19,3.111,3.111,0,0,1-1.067,3.475A85.437,85.437,0,0,1,506.2,130.3a34.947,34.947,0,0,1-14.937,4.949,1.559,1.559,0,0,0-1.115.652,55.3,55.3,0,0,0-2.53,5.617c-.519,1.435.084,2.24,1.539,1.93a30.444,30.444,0,0,0,6.718-2.09A99.083,99.083,0,0,0,516.974,128c1.477-1.233,2.816-2.749,2.636-5.016-.11-1.38,1-1.94,2.023-2.56a6.9,6.9,0,0,0,2.108-1.741q5.853-8.342,11.564-16.783a18.424,18.424,0,0,0,1.923-3.782,13.405,13.405,0,0,0,.412-2.924,2.853,2.853,0,0,1,.8.3,7.235,7.235,0,0,1,1.266,1.086c3.352,3.692,3.388,4.132.61,8.134q-5.262,7.58-10.547,15.145a2.455,2.455,0,0,0-.484,1.086c1.126-.869,2.22-1.784,3.385-2.6,1.268-.882,2.59-1.688,3.911-2.491a4.024,4.024,0,0,1,4.732.166,13.864,13.864,0,0,1,3.183,3.281,3.947,3.947,0,0,1,.027,4.631c-3.385,4.858-7.891,7.891-13.973,7.942a24.255,24.255,0,0,1-4.85-.965c.669,1.228,1.293,2.483,2.015,3.679a91.467,91.467,0,0,0,13.233,16.63,3.072,3.072,0,0,0,1.81.762c8.659.74,17.359,1.13,25.975,2.2q16.882,2.1,33.647,5.106c8.112,1.444,16.108,3.546,24.154,5.362C626.946,164.757,627.341,164.923,627.743,165.055Zm-135.66-31.91.267.285c.446-.133.9-.242,1.338-.4a46.954,46.954,0,0,0,16.3-10.34,15.627,15.627,0,0,0,1.963-2.536,1.135,1.135,0,0,0,.115-1.02,1.2,1.2,0,0,0-1.031-.263,15.886,15.886,0,0,0-3.045.986,39.264,39.264,0,0,0-9.644,7.029C496.2,128.906,494.165,131.053,492.083,133.145Zm-28.157.292c.446-.134.9-.25,1.336-.406a46.95,46.95,0,0,0,15.19-9.263,26.1,26.1,0,0,0,3.025-3.488,1.254,1.254,0,0,0,.188-1.132,1.319,1.319,0,0,0-1.133-.264,11.732,11.732,0,0,0-2.683.851C473.424,122.951,468.527,127.987,463.926,133.437Zm61.157-6.567a3.386,3.386,0,0,0,3.464,1.494c5.694-.888,9.363-4.5,12.162-9.224a5.276,5.276,0,0,0,.244-1.344C534.355,118.9,529.523,122.435,525.084,126.87Z" transform="translate(-15.744 -2.7)" fill="#242424"/>
      <path id="Path_2" data-name="Path 2" d="M427.5,112.965c2.342,1.042,3.632,3.1,4.615,5.357.179.411-.3,1.2-.624,1.721-.813,1.29-1.714,2.525-2.459,3.881,2.188-1.957,4.307-4,6.582-5.848,2.3-1.868,4.693-3.631,7.155-5.276,1.677-1.12,2.66-.758,3.665,1.023a6.934,6.934,0,0,1-.037,6.846c-1.535-2.7-3.054-3.229-6.031-2.218a24.5,24.5,0,0,0-7.667,4.678c-5.869,4.871-11.116,10.293-14.716,17.107a36.752,36.752,0,0,0-1.536,3.963,2.17,2.17,0,0,1-.878-.2,5.274,5.274,0,0,1-1.918-7.232c.867-1.527,1.833-3,2.59-4.677-.525.487-1.059.966-1.575,1.463-7.034,6.8-14.33,13.282-22.705,18.426a38.377,38.377,0,0,1-13.12,5.507c-6.993,1.282-17.811-2.042-22.063-8.491a14.576,14.576,0,0,1-2.211-9.851c.743-7.29,3.968-13.584,8.1-19.416a82.366,82.366,0,0,1,35.664-28.614,34.051,34.051,0,0,1,12.366-2.9,13.927,13.927,0,0,1,13.034,7.071,5.771,5.771,0,0,1,.081,6.223,28.038,28.038,0,0,1-7.355,8.211,44.251,44.251,0,0,1-10.162,6.062,8.435,8.435,0,0,1-1.293.338l-.259-.323a14.191,14.191,0,0,1,1.051-1.253c4.3-4.1,8.583-8.233,11.827-13.262a21.238,21.238,0,0,0,2.247-4.75c.9-2.693-.5-4.6-3.321-4.79-5.3-.366-10.21,1.181-14.977,3.246-12.44,5.386-22.285,13.99-30.414,24.689a56.882,56.882,0,0,0-9.322,16.847,19.9,19.9,0,0,0-.937,10.53c.81,3.651,3.626,5.858,7.667,6.411,4.405.6,8.552-.494,12.62-1.948a92.677,92.677,0,0,0,24.146-13.456A145.519,145.519,0,0,0,420.369,125.7c2.868-2.813,4.667-6.734,6.837-10.224C427.578,114.882,427.4,113.946,427.5,112.965Z" fill="#242424"/>
      <path id="Path_3" data-name="Path 3" d="M655.523,105.786a6.087,6.087,0,0,1,2.77,3.522,2.393,2.393,0,0,1-.419,1.661c-.923,1.485-1.948,2.907-3.073,4.558,1.786.168,3.386.335,4.99.467,15.578,1.286,30.542-.958,44.666-7.872a28.661,28.661,0,0,0,9.588-7.083,8.823,8.823,0,0,0,2.418-5.43c.063-1.933-1.072-3.347-3-3.194a26.045,26.045,0,0,0-6.277,1.225,75,75,0,0,0-17.476,8.749,2.108,2.108,0,0,1-1.35.4,4.454,4.454,0,0,1,.528-.772c4.911-4.69,10.125-8.95,16.568-11.409A11.722,11.722,0,0,1,719.5,94.935a6.628,6.628,0,0,1,.638,6.832c-1.617,3.886-4.7,6.406-8.134,8.549-5.884,3.668-12.4,5.688-19.123,7.09a95.635,95.635,0,0,1-24.645,1.815c-4.759-.251-9.5-.923-14.246-1.363a1.691,1.691,0,0,0-1.307.391c-5.071,6.731-10.294,13.362-14.337,20.8-1.182,2.177-1.344,2.908-1.057,4.445a12.48,12.48,0,0,0,1.634-.95c1.608-1.3,3.185-2.629,4.752-3.973a3.022,3.022,0,0,0,.687-.9,20.845,20.845,0,0,1,10.414-9.948c.817-.356,1.511-.985,2.31-1.39,3.153-1.6,5.383-.753,6.543,2.6.375,1.083.843,1.548,1.975,1.393,1.2-.164,2.643.5,3.37-1.119.493-1.1,1.04-2.172,1.6-3.334.692.157,2.754,2.31,2.746,3.328a2.765,2.765,0,0,1-.656,1.322c-2.28,3.275-4.6,6.527-6.856,9.816a9.188,9.188,0,0,0-.75,1.816l.3.278a8.736,8.736,0,0,0,1.6-1.078c3.374-3.552,6.751-7.1,10.024-10.748a12.257,12.257,0,0,0,1.431-3.019,5.013,5.013,0,0,1,2.786,3.231c.118.3-.28.838-.5,1.231-1.753,3.1-3.542,6.175-5.262,9.29a6.747,6.747,0,0,0-.422,1.784l.344.287a9.269,9.269,0,0,0,1.674-.921,35.974,35.974,0,0,0,8.868-11.922,34.8,34.8,0,0,0,1.65-5.39c2.167.932,2.989,2.757,1.808,5.057a37.932,37.932,0,0,1-11.821,13.761c-1.582,1.129-2.434,1.1-3.753.132a3.411,3.411,0,0,1-1.315-3.971c.367-1.171.837-2.31,1.391-3.817-1.593,1.9-2.932,3.509-4.291,5.1-.558.654-1.143,1.288-1.743,1.9-1.983,2.037-2.957,1.938-4.66-.423-1.128-1.563-1.506-3.118-.3-4.861,1.539-2.217,2.982-4.5,4.523-6.842-.972,0-1.893-.055-2.8.036-.252.025-.553.446-.675.749a23.776,23.776,0,0,1-10.432,11.731c-2.29,1.348-4.814,1.907-7.177.214a18.642,18.642,0,0,1-2.716-2.887c-.733.648-1.768,1.549-2.787,2.466-1.7,1.529-2.794,1.715-4.362.718-2-1.273-2.892-3.1-2-5.019a52.748,52.748,0,0,1,3.95-7.066c3.2-4.791,6.566-9.473,9.862-14.2.2-.279.379-.567.658-.986-6.281-1.422-12.439-2.928-18.2-5.638l.111-.393c.934.225,1.863.475,2.8.67,5.132,1.064,10.267,2.111,15.4,3.176a1.808,1.808,0,0,0,2.174-.864c.994-1.608,2.175-3.1,3.107-4.744A20.744,20.744,0,0,0,655.523,105.786Zm5.569,25.447a15.209,15.209,0,0,1-2.781-.393c-1.856-.662-3.251.206-4.612,1.214a21.07,21.07,0,0,0-6.648,8.07c-.417.889-1.211,2.012-.306,2.862.973.914,2.222.242,3.059-.424a95.911,95.911,0,0,0,7.308-6.257A47.3,47.3,0,0,0,661.092,131.233Zm.292-1.326c.63-1.98.4-3.115-.657-3.379a2.5,2.5,0,0,0-2.644,1.766C657.967,129.141,659.057,129.685,661.384,129.906Z" transform="translate(-106.684 -0.609)" fill="#242424"/>
      <path id="Path_4" data-name="Path 4" d="M738.227,150.383c-5.18,2.163-16.843,13.58-17.367,16.8-1.508-.421-2.687-2.579-1.978-3.938a52.431,52.431,0,0,1,2.956-4.833c1.576-2.361,3.272-4.642,4.815-7.024a17.367,17.367,0,0,0,1.217-2.9,3.119,3.119,0,0,1,1.724,4.789,46.967,46.967,0,0,0-3.261,5.022,12.464,12.464,0,0,1,1.011-1.126c3.029-2.67,6.032-5.373,9.146-7.941.676-.558,2.166-1.126,2.589-.8a11.6,11.6,0,0,1,2.505,3.317c.133.222-.356.885-.645,1.28-2.358,3.226-4.75,6.427-7.1,9.662a5.846,5.846,0,0,0-.854,2.038c4.3-2.6,7.8-6.164,11.68-9.376a2.141,2.141,0,0,1-.288.668c-3.424,3.561-6.814,7.158-10.324,10.634-1.274,1.262-2.044,1.169-3.16.236-1.449-1.212-2.07-2.83-1.279-4.04,2.327-3.56,4.761-7.05,7.164-10.561C737.165,151.728,737.6,151.2,738.227,150.383Z" transform="translate(-140.647 -23.22)" fill="#242424"/>
      <path id="Path_5" data-name="Path 5" d="M527.221,238.982c-.551,2.5-1.01,4.682-1.53,6.85-.083.35-.432.638-.657.954-.28-.312-.73-.585-.811-.942-.633-2.754-1.195-5.524-1.783-8.312.938-.538,1.117.016,1.246.737.371,2.067.765,4.129,1.324,6.232.466-2.024.926-4.049,1.4-6.07.117-.5.022-1.318.869-1.072a1.71,1.71,0,0,1,.886,1.1c.506,1.949.914,3.924,1.437,6.243.41-2.088.762-3.878,1.113-5.667a3.248,3.248,0,0,1,.214-1,4.794,4.794,0,0,1,.824-.852l.378.265c-.636,2.914-1.26,5.832-1.931,8.739-.055.239-.433.4-.66.6-.225-.263-.581-.494-.653-.793-.49-2.043-.919-4.1-1.373-6.153C527.47,239.648,527.385,239.459,527.221,238.982Z" transform="translate(-64.867 -57.532)" fill="#242424"/>
      <path id="Path_6" data-name="Path 6" d="M480.587,240.121c0,1.977.018,3.955-.023,5.931,0,.236-.333.466-.511.7-.171-.2-.487-.4-.49-.6-.032-2.912-.022-5.825-.022-8.738l.373-.275c.39.308.918.536,1.147.936,1.12,1.959,2.159,3.963,3.479,5.889,0-1.875-.029-3.752.025-5.626.01-.354.347-.7.533-1.047.164.331.465.66.471.994.045,2.493.045,4.987.018,7.481a2.993,2.993,0,0,1-.382.966c-.364-.219-.881-.349-1.067-.672-.987-1.71-1.888-3.469-2.825-5.208-.154-.286-.338-.556-.509-.832Z" transform="translate(-48.3 -57.515)" fill="#242424"/>
      <path id="Path_7" data-name="Path 7" d="M623,237.409c1.49,0,2.815-.046,4.134.016a1.93,1.93,0,0,1,1.816,1.566,2.825,2.825,0,0,1-.635,2.979,5.437,5.437,0,0,1-.873.59l2.239,4.065c-.778.436-1.257.335-1.612-.42-.346-.736-.743-1.45-1.14-2.16-.751-1.344-1.088-1.494-2.857-1.239,0,1.08.029,2.186-.021,3.289-.012.258-.294.5-.452.754-.2-.255-.567-.506-.571-.764C622.982,243.258,623,240.43,623,237.409Zm1.177,1.091v3.044c.829,0,1.556.028,2.279-.007a1.4,1.4,0,0,0,1.486-1.565,1.351,1.351,0,0,0-1.438-1.465C625.742,238.469,624.98,238.5,624.175,238.5Z" transform="translate(-103.699 -57.612)" fill="#242424"/>
      <path id="Path_8" data-name="Path 8" d="M652.39,242.054a16.949,16.949,0,0,1-1.021,3.105,3.149,3.149,0,0,1-5.637.1,6.315,6.315,0,0,1-.034-6.5,3.147,3.147,0,0,1,3.494-1.6A3.99,3.99,0,0,1,652.1,240.7c.065.421.054.854.078,1.282Zm-1.207.018c-.177-.764-.291-1.483-.514-2.166a2.179,2.179,0,0,0-2.079-1.648,2.232,2.232,0,0,0-2.212,1.657,5.057,5.057,0,0,0,.125,4.36,2.956,2.956,0,0,0,2.045,1.412,3.261,3.261,0,0,0,2.031-1.438A6.348,6.348,0,0,0,651.183,242.071Z" transform="translate(-112.126 -57.496)" fill="#242424"/>
      <path id="Path_9" data-name="Path 9" d="M507.216,241.293c.3.97.1,1.351-.77,1.315-1.019-.042-2.042-.01-3.13-.01v3.065c1.211,0,2.363-.047,3.506.028.349.023.676.383,1.013.589-.314.2-.621.552-.94.565-1.533.06-3.07.026-4.662.026V237.38c1.617,0,3.23-.018,4.841.024.188,0,.369.338.552.519-.208.2-.409.57-.627.58-1.192.058-2.388.028-3.669.028v2.763Z" transform="translate(-57.064 -57.605)" fill="#242424"/>
      <path id="Path_10" data-name="Path 10" d="M585.534,246.7c.887-2.885,1.754-5.756,2.673-8.61a.777.777,0,0,1,1.522-.011c.97,2.838,1.888,5.694,2.85,8.632-.7.3-1.188.321-1.388-.51a3.551,3.551,0,0,0-.209-.609c-.216-.485-.363-1.3-.687-1.379a4.475,4.475,0,0,0-2.528.006c-.444.168-.664,1.093-.856,1.716C586.692,246.649,586.46,247.149,585.534,246.7Zm3.439-7.809c-.445,1.522-.787,2.689-1.157,3.955h2.271a3.315,3.315,0,0,0-.063-.411C589.714,241.379,589.4,240.323,588.973,238.893Z" transform="translate(-89.233 -57.639)" fill="#242424"/>
      <path id="Path_11" data-name="Path 11" d="M570.434,239.754c-.506.493-.9.544-1.217-.223-.34-.821-.988-1.5-1.87-1.215-.73.236-1.777.862-1.868,1.443a13.967,13.967,0,0,0,.09,4.637,2.258,2.258,0,0,0,1.8,1.285c.673-.041,1.3-.876,1.94-1.377.305-.239.588-.507.881-.762.053.414.259.884.131,1.231a3.076,3.076,0,0,1-5.75.288,7.2,7.2,0,0,1-.112-5.877,3.216,3.216,0,0,1,3.24-2.1C569.108,237.191,569.971,238.027,570.434,239.754Z" transform="translate(-80.872 -57.49)" fill="#242424"/>
      <path id="Path_12" data-name="Path 12" d="M609.025,237.191c.22.274.626.543.632.821q.074,4,.006,8c0,.255-.381.5-.585.757-.157-.255-.448-.507-.45-.763-.033-2.835-.021-5.67-.021-8.506Z" transform="translate(-98.142 -57.534)" fill="#242424"/>
      <path id="Path_13" data-name="Path 13" d="M678.592,153c-2.326-.222-3.417-.765-3.3-1.613a2.5,2.5,0,0,1,2.644-1.766C678.988,149.883,679.222,151.018,678.592,153Z" transform="translate(-123.892 -23.7)" fill="#242424"/>
    </g>
  </g>
</svg>
